<svg xmlns="http://www.w3.org/2000/svg" viewBox="341.962 369.02 150.696 180.955" width="100%" height="100%" preserveAspectRatio="xMidYMid meet">
  <path transform="translate(0,0)" fill="rgb(190,180,12)" d="M414.459 378.714 C422.559 378.669 437.118 393.082 444.667 395.447 C488.698 409.242 480.26 392.373 482.72 435.711 C485.534 485.295 464.571 519.456 420.18 540.05 C419.175 540.203 417.438 540.404 416.466 540.183 C401.211 536.716 382.626 520.453 373.095 509.447 C352.452 487.677 350.491 461.694 352.081 433.408 C352.358 428.467 350.105 406.535 354.475 404.122 C361.65 400.161 374.693 400.485 382.852 397.744 C395.174 393.605 404.586 386.836 414.459 378.714 z"/>
  <path transform="translate(0,0)" fill="rgb(190,180,12)" d="M361.611 410.688 C360.01 430.483 360.374 453.112 363.437 472.642 C366.348 491.198 401.353 530.326 419.695 528.591 C436.768 522.054 458.247 499.173 466.038 481.912 C474.242 463.737 475.056 434.51 473.436 414.405 C473.013 409.162 461.316 410.007 458.049 408.919 C446.723 406.259 435.976 401.86 426.169 395.546 C423.198 393.633 419.476 389.917 415.968 389.556 C398.734 403.369 384.653 409.919 361.611 410.688 z"/>
  <path transform="translate(0,0)" fill="rgb(130,149,15)" d="M 442.368 428.617 C 450.682 432.631 445.572 441.102 441.168 445.577 C 435.211 451.628 414.445 477.33 407.756 477.921 C 400.508 475.954 396.401 469.011 391.749 463.027 C 389.263 459.803 387.216 458.179 387.054 453.989 C 388.499 450.242 387.557 451.553 390.603 448.984 C 400.101 448.496 402.982 467.115 410.907 461.294 C 421.659 453.399 431.168 435.479 442.368 428.617 z"/>
</svg>